<svg height="512" viewBox="0 0 59 55" width="512" xmlns="http://www.w3.org/2000/svg"><g id="Page-1" fill="none" fill-rule="evenodd"><g id="012---SIM-Card-Global" fill-rule="nonzero" transform="translate(-1 -1)"><path id="Shape" d="m24 15.9c-3.440854.0084155-6.8775147-.2406465-10.2812-.7451-.0171-.0015-.0337-.0034-.0494-.0059-2.918086-.3861079-5.7740593-1.1476111-8.497-2.2656-.50115864-.2270181-.7247989-.8162306-.50048755-1.3186066s.81230884-.7291914 1.31588755-.5075934c2.54656718 1.0396031 5.2159922 1.7481876 7.9429 2.1084.018.0015.0356.0039.0522.0064 5.2755285.7668196 10.6214005.9283338 15.9336.4814.550407-.0461158 1.0339842.362693 1.0801.9131s-.362693 1.0339842-.9131 1.0801c-2.0064.1679-4.0527.2534-6.0835.2534z" fill="#3b97d3"/><path id="Shape" d="m24 47c-7.7705198.0127741-15.01884867-3.9104917-19.2573-10.4233-.16011272-.2452204-.20468195-.5483036-.12194152-.8292362.08274044-.2809326.28447328-.5114748.55194152-.6307638 2.7229407-1.1179889 5.578914-1.8794921 8.497-2.2656.0176-.0025.0357-.0049.0537-.0064 5.4169877-.7844476 10.9057072-.9492434 16.36-.4912.3560509.0298317.6691405.2473482.8213309.5706131.1521905.323265.1203605.7031667-.0835.9966-.2038604.2934333-.54878.4558186-.9048309.4259869-5.3121874-.4473836-10.6581107-.2858678-15.9336.4814-.019.003-.0381.0054-.0571.0073-2.3189205.3260871-4.60022786.8790389-6.8111 1.6509 3.9526898 5.3635484 10.2227217 8.5249287 16.8854 8.5137.5522847 0 1 .4477153 1 1s-.4477153 1-1 1z" fill="#3b97d3"/><path id="Shape" d="m24 47c-.1655 0-.3306-.001-.4849-.0127-4.601-.3227-8.685-5.2651-10.6533-12.8979-.8452148-3.2959034-1.2625788-6.6869104-1.2418-10.0894-.0207334-3.4043202.3971041-6.7971331 1.2432-10.0947 2.0528-7.9585 6.3209-12.9053 11.1368-12.9053 3.8262 0 7.3579 3.1372 9.69 8.6079.2165509.508102-.019798 1.0955491-.5279 1.3121s-1.0955491-.019798-1.3121-.5279c-2.0023-4.6978-4.8637-7.3921-7.85-7.3921-3.8018 0-7.4136 4.4785-9.2017 11.41-.8027522 3.1328425-1.1987749 6.3560096-1.1783 9.59-.0205533 3.2322544.374962 6.4537148 1.1768 9.585 1.7212 6.6748 5.2 11.1508 8.8628 11.4077.1113.0088.2246.0083.34.0073 2.3037 0 4.1157-1.603 5.23-2.9482.227989-.2750945.5854208-.4076616.9376541-.3477646.3522334.059897.6457557.3031584.7700001.63815.1242443.3349916.0603349.7108201-.1676542.9859146-1.9903 2.4024-4.3311 3.6719-6.7696 3.6719z" fill="#3b97d3"/><path id="Shape" d="m24 47c-.5522847 0-1-.4477153-1-1v-44c0-.55228475.4477153-1 1-1s1 .44771525 1 1v44c0 .5522847-.4477153 1-1 1z" fill="#3b97d3"/><path id="Shape" d="m30 25h-28c-.55228475 0-1-.4477153-1-1s.44771525-1 1-1h28c.5522847 0 1 .4477153 1 1s-.4477153 1-1 1z" fill="#3b97d3"/><path id="Shape" d="m24 47c-10.684674.0048441-19.96564463-7.3490683-22.40366702-17.7518722-2.43802239-10.402804 2.6090182-21.11465832 12.18323182-25.85772858 9.5742137-4.74307026 21.1539895-2.26814908 27.9528352 5.97430078.2269708.2759698.2894724.6520639.1639609.9866113-.1255114.3345474-.4199677.5767224-.77245.6353-.3524822.0585776-.7094401-.0753415-.9364109-.3513113-6.6744569-8.06928849-18.2758188-9.98387061-27.1891033-4.48703967-8.91328455 5.49683097-12.41079384 16.72290117-8.19680847 26.30956477 4.21398536 9.5866635 14.84987587 14.6001511 24.92641177 11.7496749.5315188-.1502215 1.0841785.1588812 1.2344.6904s-.1588812 1.0841785-.6904 1.2344c-2.0408127.5763019-4.1513774.8682881-6.272.8677z" fill="#2980ba"/><path id="Shape" d="m59.4142 23.4142-12.8284-12.8284c-.3750672-.3750744-.8837698-.5857928-1.4142-.5858h-14.1716c-.5522847 0-1 .4477153-1 1v44c0 .5522847.4477153 1 1 1h28c.5522847 0 1-.4477153 1-1v-30.1716c-.0000072-.5304302-.2107256-1.0391328-.5858-1.4142z" fill="#e64c3c"/><rect id="Rectangle-path" fill="#f29c1f" height="27" rx="4" width="22" x="34" y="25"/><g fill="#e57e25"><path id="Shape" d="m52 53h-14c-2.760076-.0032511-4.9967489-2.239924-5-5v-19c.0032511-2.760076 2.239924-4.9967489 5-5h14c2.760076.0032511 4.9967489 2.239924 5 5v19c-.0032511 2.760076-2.239924 4.9967489-5 5zm-14-27c-1.6561003.0018187-2.9981813 1.3438997-3 3v19c.0018187 1.6561003 1.3438997 2.9981813 3 3h14c1.6561003-.0018187 2.9981813-1.3438997 3-3v-19c-.0018187-1.6561003-1.3438997-2.9981813-3-3z"/><path id="Shape" d="m56 45h-22c-.5522847 0-1-.4477153-1-1v-11c0-.5522847.4477153-1 1-1h22c.5522847 0 1 .4477153 1 1v11c0 .5522847-.4477153 1-1 1zm-21-2h20v-9h-20z"/><path id="Shape" d="m41 34c-.5522847 0-1-.4477153-1-1v-8c0-.5522847.4477153-1 1-1s1 .4477153 1 1v8c0 .5522847-.4477153 1-1 1z"/><path id="Shape" d="m49 34c-.5522847 0-1-.4477153-1-1v-8c0-.5522847.4477153-1 1-1s1 .4477153 1 1v8c0 .5522847-.4477153 1-1 1z"/><path id="Shape" d="m41 53c-.5522847 0-1-.4477153-1-1v-8c0-.5522847.4477153-1 1-1s1 .4477153 1 1v8c0 .5522847-.4477153 1-1 1z"/><path id="Shape" d="m49 53c-.5522847 0-1-.4477153-1-1v-8c0-.5522847.4477153-1 1-1s1 .4477153 1 1v8c0 .5522847-.4477153 1-1 1z"/></g><path id="Shape" d="m35 15h-1c-.5522847 0-1-.4477153-1-1s.4477153-1 1-1h1c.5522847 0 1 .4477153 1 1s-.4477153 1-1 1z" fill="#fb7b76"/><path id="Shape" d="m44 15h-5c-.5522847 0-1-.4477153-1-1s.4477153-1 1-1h5c.5522847 0 1 .4477153 1 1s-.4477153 1-1 1z" fill="#fb7b76"/></g></g></svg>