<svg id="Capa_1" enable-background="new 0 0 512 512" height="512" viewBox="0 0 512 512" width="512" xmlns="http://www.w3.org/2000/svg"><g><g fill="#4d5961"><path d="m73.011 131.575h-42.942c-2.38 0-4.31-1.93-4.31-4.31v-49.449c0-2.38 1.93-4.31 4.31-4.31h42.942z"/><path d="m73.011 189.152h-42.942c-2.38 0-4.31-1.93-4.31-4.31v-24.044c0-2.38 1.93-4.31 4.31-4.31h42.942z"/><path d="m73.011 246.728h-42.942c-2.38 0-4.31-1.93-4.31-4.31v-24.044c0-2.38 1.93-4.31 4.31-4.31h42.942z"/></g><path d="m346.639 512h-262.809c-17.354 0-31.423-14.069-31.423-31.423v-449.154c0-17.355 14.069-31.423 31.423-31.423h262.809c17.354 0 31.423 14.068 31.423 31.423v449.154c0 17.354-14.068 31.423-31.423 31.423z" fill="#5e6b75"/><path d="m346.639 0h-22.527c17.354 0 31.423 14.068 31.423 31.423v449.154c0 17.354-14.068 31.423-31.423 31.423h22.527c17.354 0 31.423-14.069 31.423-31.423v-449.154c0-17.355-14.068-31.423-31.423-31.423z" fill="#4d5961"/><path d="m283.46 37.103-7.456 16.011c-1.76 3.78-5.552 6.197-9.722 6.197h-102.094c-4.17 0-7.962-2.417-9.722-6.197l-7.456-16.011c-1.76-3.78-5.552-6.197-9.722-6.197h-43.25c-5.923 0-10.725 4.802-10.725 10.725v428.74c0 5.923 4.802 10.725 10.725 10.725h242.395c5.923 0 10.725-4.802 10.725-10.725v-428.741c0-5.923-4.802-10.725-10.725-10.725h-43.25c-4.171 0-7.963 2.417-9.723 6.198z" fill="#d3effb"/><g><path d="m336.432 30.905h-23.045c5.923 0 10.725 4.802 10.725 10.725v428.74c0 5.923-4.802 10.725-10.725 10.725h23.045c5.923 0 10.725-4.802 10.725-10.725v-428.74c0-5.923-4.802-10.725-10.725-10.725z" fill="#b1e4f9"/></g><g><g><path d="m185.066 37.928c-4.268 0-7.726-3.459-7.726-7.726v-6.352c0-4.268 3.459-7.726 7.726-7.726s7.726 3.459 7.726 7.726v6.352c0 4.267-3.458 7.726-7.726 7.726z" fill="#4d5961"/></g><g><path d="m245.403 34.752h-32.664c-4.268 0-7.726-3.459-7.726-7.726s3.459-7.726 7.726-7.726h32.664c4.268 0 7.726 3.459 7.726 7.726s-3.458 7.726-7.726 7.726z" fill="#4d5961"/></g></g><g><path d="m253.196 438.54h-75.923c-5.295 0-9.588-4.293-9.588-9.588v-30.245c0-5.295 4.293-9.588 9.588-9.588h75.923c5.295 0 9.588 4.293 9.588 9.588v30.245c0 5.296-4.293 9.588-9.588 9.588z" fill="#ffe07d"/><path d="m253.196 389.12h-18.701c5.295 0 9.588 4.293 9.588 9.588v30.245c0 5.295-4.293 9.588-9.588 9.588h18.701c5.295 0 9.588-4.293 9.588-9.588v-30.245c0-5.295-4.293-9.588-9.588-9.588z" fill="#ffd064"/></g><path d="m475.195 313.416h-279.083c-6.101 0-11.046-4.945-11.046-11.046v-176.61c0-6.101 4.945-11.046 11.046-11.046h279.082c6.101 0 11.046 4.945 11.046 11.046v176.61c.001 6.101-4.945 11.046-11.045 11.046z" fill="#ffe07d"/><path d="m475.195 114.714h-17.012c6.101 0 11.046 4.946 11.046 11.046v176.61c0 6.101-4.945 11.046-11.046 11.046h17.012c6.1 0 11.046-4.945 11.046-11.046v-176.61c0-6.101-4.946-11.046-11.046-11.046z" fill="#ffd064"/><path d="m435.154 268.381h-199.001c-2.658 0-4.812-2.155-4.812-4.812v-20.997c0-2.658 2.155-4.812 4.812-4.812h199.001c2.658 0 4.812 2.155 4.812 4.812v20.997c.001 2.658-2.154 4.812-4.812 4.812z" fill="#5e6b75"/><path d="m435.154 237.759h-18.014c2.658 0 4.812 2.155 4.812 4.812v20.997c0 2.658-2.155 4.812-4.812 4.812h18.014c2.658 0 4.812-2.155 4.812-4.812v-20.997c0-2.657-2.154-4.812-4.812-4.812z" fill="#4d5961"/><g><g><g><path d="m422.272 206.535c-6.815 0-11.107-.779-17.457-4.879-3.345-2.16-4.745-6.516-2.96-10.075 2.111-4.209 7.328-5.531 11.152-3.031 3.636 2.377 4.823 2.564 9.8 2.529 4.732-.031 6.619-3.747 6.987-5.938.477-2.834-.756-4.792-3.663-5.819-6.277-2.218-12.716-4.766-17.292-8.354-4.895-3.839-7.146-10.42-5.873-17.172 1.369-7.266 6.454-13.054 13.27-15.108 5.185-1.561 10.57-1.116 15.132.118 5.571 1.507 7.619 8.333 3.759 12.623-1.966 2.185-4.994 3.04-7.828 2.262-2.003-.55-4.426-.863-6.606-.206-1.911.575-2.428 2.573-2.541 3.172-.239 1.273.113 2.064.224 2.152 2.829 2.218 8.111 4.249 12.905 5.944 10.155 3.59 15.703 13.134 13.633 23.606-2.101 10.627-11.677 18.155-22.51 18.174-.045.002-.088.002-.132.002z" fill="#e7a52e"/></g><g><path d="m422.857 214.315c-4.268 0-7.726-3.459-7.726-7.726v-5.596c0-4.268 3.459-7.726 7.726-7.726s7.726 3.459 7.726 7.726v5.596c0 4.268-3.459 7.726-7.726 7.726z" fill="#e7a52e"/></g><g><path d="m422.857 150.652c-4.268 0-7.726-3.459-7.726-7.726v-4.824c0-4.268 3.459-7.726 7.726-7.726s7.726 3.459 7.726 7.726v4.824c0 4.268-3.459 7.726-7.726 7.726z" fill="#e7a52e"/></g></g><path d="m250.751 192.25-15.1-15.1c-2.607-2.607-2.607-6.833 0-9.44l15.1-15.1c2.607-2.607 6.833-2.607 9.44 0l15.1 15.1c2.607 2.607 2.607 6.833 0 9.44l-15.1 15.1c-2.607 2.607-6.833 2.607-9.44 0z" fill="#e28086"/><path d="m275.291 167.71-15.1-15.1c-2.607-2.607-6.833-2.607-9.44 0l-6.139 6.139 8.962 8.962c2.607 2.607 2.607 6.833 0 9.44l-8.962 8.962 6.139 6.139c2.607 2.607 6.833 2.607 9.44 0l15.1-15.1c2.607-2.609 2.607-6.835 0-9.442z" fill="#dd636e"/></g><g><path d="m358.234 153.027h-45.161c-4.268 0-7.726-3.459-7.726-7.726s3.459-7.726 7.726-7.726h45.161c4.268 0 7.726 3.459 7.726 7.726s-3.458 7.726-7.726 7.726z" fill="#e7a52e"/></g></g></svg>