<svg xmlns="http://www.w3.org/2000/svg" viewBox="0 0 42 40" id="iconMtn"><g transform="translate(.472 .409)"><path fill="#ffbe00" d="M-.472 29.591h42v10h-42zM-.472-.409h42v30h-42z"></path><ellipse cx="20.5" cy="7" rx="20.5" ry="7" transform="translate(-.472 5.591)" fill="#005b9a"></ellipse><path d="M35.481 13.594a5.961 5.961 0 01-.148 1.189 4.913 4.913 0 01-.343 1.142c-.146.311-.295.466-.426.466-.147 0-.28-.186-.381-.566q-.221-.8-.956-5.539l1.655-1.757c.1-.108.18-.163.21-.163s.055.047.077.146a14.067 14.067 0 01.3 2.534c.012.296.012 1.141.012 2.548zM32.255 18.015l-.668-.637a.109.109 0 00-.172 0l-.573.59-.613-.59a.109.109 0 00-.172 0l-.6.6c-.069.071-.069.124-.014.181l.651.637a.09.09 0 00.141 0l.605-.6.613.6a.09.09 0 00.141 0l.652-.646c.057-.05.057-.087.009-.135zM32.452 13.547a3.971 3.971 0 00-.854-2.61c-.055-.077-.1-.116-.133-.116s-.07.046-.124.124l-1.017 1.483c-.057.078-.057.148 0 .193a8.2 8.2 0 01.877.917.4.4 0 01.093.219c0 .117-.108.178-.326.178h-1.243v2.494h.435a2.14 2.14 0 001.865-.73 3.973 3.973 0 00.427-2.152z" fill="#fefefe"></path><path d="M30.048 16.524h-.3a.686.686 0 01-.405-.132v.481a3.461 3.461 0 01-.332 1.344 3.936 3.936 0 01-.638 1.034.454.454 0 01-.333.133h-2.579c-.3 0-.451-.125-.451-.375a.311.311 0 01.2-.3 14.172 14.172 0 001.784-1.071c.917-.63 1.384-1.079 1.384-1.345 0-.218-.411-.716-1.234-1.484l.878-1.81c.055-.107.124-.125.2-.038a8.268 8.268 0 00.722.7 1.442 1.442 0 00.91.364h.2zM25.106 13.611a5.862 5.862 0 01-.146 1.173 4.657 4.657 0 01-.343 1.134c-.147.311-.295.466-.429.466s-.271-.186-.379-.565q-.224-.793-.956-5.486l1.655-1.732c.1-.108.178-.164.209-.164s.055.046.079.147a13.134 13.134 0 01.295 2.5c.015.298.015 1.137.015 2.527zM21.403 9.565a.094.094 0 010 .155l-.739.729a.1.1 0 01-.163 0l-.746-.722c-.063-.054-.055-.124.015-.194l.692-.7c.054-.062.116-.062.187 0zM22.17 13.483a3.866 3.866 0 01-.427 2.121 2.136 2.136 0 01-1.864.723h-.435v-2.463h1.243c.217 0 .326-.054.326-.179a.344.344 0 00-.093-.208 7.828 7.828 0 00-.878-.91c-.055-.047-.055-.115 0-.194l1.018-1.46c.054-.086.093-.125.124-.125s.078.039.132.109a3.92 3.92 0 01.854 2.586z" fill="#fefefe"></path><path d="M19.793 16.364v-2.445h-.419a.5.5 0 01-.49-.319c-.085-.319-.132-.514-.156-.592-.062-.209-.17-.311-.341-.311a.348.348 0 00-.365.3c-.055.209-.1.411-.132.6a.461.461 0 01-.878 0c-.062-.288-.1-.489-.132-.6-.046-.217-.163-.318-.341-.318s-.3.1-.365.318c-.079.295-.125.5-.147.605a.452.452 0 01-.443.327.493.493 0 01-.505-.334 17.465 17.465 0 00-.155-.613c-.054-.219-.178-.327-.357-.327-.164 0-.288.116-.381.365-.054.194-.1.388-.163.575a.579.579 0 01-.576.334h-.413v2.447h.427a1.345 1.345 0 001.064-.747 1.1 1.1 0 00.979.73c.279 0 .582-.247.916-.73a1.341 1.341 0 00.389.5.86.86 0 00.559.232c.288 0 .614-.24.964-.707a1.349 1.349 0 001.033.707z" fill="#fefefe"></path><path d="M13.306 16.289h-.357a.994.994 0 01-.729-.382 3.382 3.382 0 01-.444 1.733 2.463 2.463 0 01-2.331 1.234 3.36 3.36 0 01-2.066-.567 2.193 2.193 0 01-.878-1.9 5.421 5.421 0 01.249-1.475c.187-.667.412-1 .652-1 .226 0 .334.2.334.591a2.117 2.117 0 01-.038.389 3.082 3.082 0 00-.039.388c0 .778.667 1.166 2.012 1.166 1.018 0 1.522-.357 1.522-1.081v-.155l-.427-5.88a.16.16 0 01.062-.149l1.655-1.057c.054-.038.085-.054.093-.038a.306.306 0 01.016.124v5.019c0 .388.178.574.528.574h.187z" fill="#fefefe"></path><path d="M34.113 37.922l1.708-7.449-2.064-.023-1.149 4.9h-.023l-2.791-4.856-1.879-.016-1.856 7.437 1.9.015.908-3.791c.039-.155.07-.318.1-.482s.039-.286.055-.419h.039a.678.678 0 00.054.124c.022.056.047.108.07.164s.062.117.086.169a1.261 1.261 0 00.077.158l2.276 4.068zM25.954 32.221h-2.33l-1.057 4.575h-1.873l1.049-4.575h-2.361l.4-1.694h6.573zM16.398 37.915h-2.237l.971-4.507h-.047c-.054.109-.116.226-.179.333s-.125.22-.186.313-.125.187-.172.264a1.734 1.734 0 01-.14.192l-2.051 3.4H10.19l-.125-3.412c-.007-.379-.062-.776-.084-1.149h-.055l-1.46 4.592H6.19l2.361-7.45h2.711l.529 5.1c.063 0 .139-.2.17-.256.054-.1.1-.193.156-.295s.117-.193.179-.287a2.213 2.213 0 01.179-.241l2.424-4.024 3.3-.03z" fill="#004eaf"></path><path d="M22.497 37.107l-.2.823h-1.866l.187-.823z" fill="#e62e21"></path><path d="M22.567 36.797l-.071.311h-1.879l.069-.311z" fill="#ffbe00"></path></g></svg>