<svg id="Layer_3" enable-background="new 0 0 64 64" height="512" viewBox="0 0 64 64" width="512" xmlns="http://www.w3.org/2000/svg"><g><g><g><path d="m47 24h-8v-2h7v-6h2v7c0 .553-.447 1-1 1z" fill="#758190"/></g></g><g><g><path d="m48 44h-2v-6h-7v-2h8c.553 0 1 .447 1 1z" fill="#758190"/></g></g><g><g><path d="m41 29h12v2h-12z" fill="#758190"/></g></g><g><path d="m33 62h-22c-2.761 0-5-2.239-5-5v-50c0-2.761 2.239-5 5-5h22c2.761 0 5 2.239 5 5v50c0 2.761-2.239 5-5 5z" fill="#58616c"/></g><g><path d="m35 57v-50c0-2.761-2.239-5-5-5h-19c-2.761 0-5 2.239-5 5v50c0 2.761 2.239 5 5 5h19c2.761 0 5-2.239 5-5z" fill="#758190"/></g><g><circle cx="28" cy="30" fill="#7e848d" r="14"/></g><g><path d="m28 44c-7.732 0-14-6.268-14-14s6.268-14 14-14c3.92 0 7.459 1.615 10 4.211v-10.211h-32v40h32v-10.211c-2.541 2.596-6.08 4.211-10 4.211z" fill="#8bd2f5"/></g><g><path d="m28 44c-.506 0-1.005-.03-1.498-.082-.494.052-.994.082-1.502.082-7.732 0-14-6.268-14-14s6.268-14 14-14c.508 0 1.008.03 1.502.082.493-.052.992-.082 1.498-.082 2.554 0 4.94.695 7 1.891v-7.891h-29v40h29v-7.891c-2.06 1.196-4.446 1.891-7 1.891z" fill="#a2dbf7"/></g><g><ellipse cx="26.5" cy="30" fill="#a8b0bc" rx="12.5" ry="13.917"/></g><g><path d="m22 26 4-4h8v16h-12z" fill="#a8575d"/></g><g><path d="m26 22-4 4v12h9v-16z" fill="#e0747c"/></g><g><path d="m22 30h12v8h-12z" fill="#cbd0d7"/></g><g><path d="m22 30h9v8h-9z" fill="#eeeff2"/></g><g><path d="m26 34h4v4h-4z" fill="#e0747c"/></g><g><circle cx="55" cy="30" fill="#b9a261" r="3"/></g><g><ellipse cx="53.5" cy="30" fill="#f7d881" rx="1.5" ry="2.584"/></g><g><circle cx="47" cy="46" fill="#b9a261" r="3"/></g><g><ellipse cx="45.5" cy="46" fill="#f7d881" rx="1.5" ry="2.584"/></g><g><circle cx="47" cy="14" fill="#b9a261" r="3"/></g><g><ellipse cx="45.5" cy="14" fill="#f7d881" rx="1.5" ry="2.584"/></g><g><g><path d="m19 5h6v2h-6z" fill="#eeeff2"/></g></g><g><circle cx="22" cy="56" fill="#eeeff2" r="2"/></g></g></svg>